<svg width="65" height="65" viewBox="0 0 65 65" fill="none" xmlns="http://www.w3.org/2000/svg">
<path d="M58.5 54.5L58.5 9.5L61.5 9.5L61.5 54.5L58.5 54.5Z" fill="#F37B36"/>
<path d="M4.5 54.5L4.5 9.5L7.5 9.5L7.5 54.5L4.5 54.5Z" fill="#F37B36"/>
<path d="M10.5 3.5L55.5 3.5V6.5L10.5 6.5V3.5Z" fill="#F37B36"/>
<path d="M10.5 57.5L55.5 57.5V60.5L10.5 60.5V57.5Z" fill="#F37B36"/>
<path d="M11.5 42.5L11.5 30.5L14.5 30.5L14.5 42.5L11.5 42.5Z" fill="#F37B36"/>
<path d="M38.5 35.5L38.5 23.5L41.5 23.5L41.5 35.5L38.5 35.5Z" fill="#F37B36"/>
<path d="M41.5 38.5L41.5 35.5L44.5 35.5L44.5 38.5L41.5 38.5Z" fill="#F37B36"/>
<path d="M44.5 35.5L44.5 32.5L47.5 32.5L47.5 35.5L44.5 35.5Z" fill="#F37B36"/>
<path d="M55.5 57.5L55.5 54.5L58.5 54.5L58.5 57.5L55.5 57.5Z" fill="#F37B36"/>
<path d="M7.49997 57.5L7.49997 54.5L10.5 54.5L10.5 57.5L7.49997 57.5Z" fill="#F37B36"/>
<path d="M55.5 9.5L55.5 6.5L58.5 6.5L58.5 9.5L55.5 9.5Z" fill="#F37B36"/>
<path d="M7.49997 9.5L7.49997 6.5L10.5 6.5L10.5 9.5L7.49997 9.5Z" fill="#F37B36"/>
<path d="M47.5 32.5L47.5 29.5L50.5 29.5L50.5 32.5L47.5 32.5Z" fill="#F37B36"/>
<path d="M50.5 42.5L50.5 32.5L53.5 32.5L53.5 42.5L50.5 42.5Z" fill="#F37B36"/>
<path d="M14.5 45.5L14.5 42.5L17.5 42.5L17.5 45.5L14.5 45.5Z" fill="#F37B36"/>
<path d="M29.5 23.5L29.5 16.5L32.5 16.5L32.5 23.5L29.5 23.5Z" fill="#F37B36"/>
<path d="M32.5 16.5L32.5 9.5L35.5 9.5L35.5 16.5L32.5 16.5Z" fill="#F37B36"/>
<path d="M35.5 23.5L35.5 16.5L38.5 16.5L38.5 23.5L35.5 23.5Z" fill="#F37B36"/>
<path d="M17.5 51.5L17.5 45.5L20.5 45.5L20.5 51.5L17.5 51.5Z" fill="#F37B36"/>
<path d="M20.5 54.5L20.5 51.5L23.5 51.5L23.5 54.5L20.5 54.5Z" fill="#F37B36"/>
<path d="M23.5 51.5L23.5 37.5L26.5 37.5L26.5 51.5L23.5 51.5Z" fill="#F37B36"/>
<path d="M26.5 37.5L26.5 23.5L29.5 23.5L29.5 37.5L26.5 37.5Z" fill="#F37B36"/>
</svg>
