<svg width="51" height="51" viewBox="0 0 51 51" fill="none" xmlns="http://www.w3.org/2000/svg">
<path d="M18 0H21V3H18V0Z" fill="#F37B36"/>
<path d="M33 51H30V48H33V51Z" fill="#F37B36"/>
<path d="M48 33L48 30L51 30L51 33L48 33Z" fill="#F37B36"/>
<path d="M3 18L3 21L1.31134e-07 21L0 18L3 18Z" fill="#F37B36"/>
<path d="M21 0H24V3H21V0Z" fill="#F37B36"/>
<path d="M30 51H27V48H30V51Z" fill="#F37B36"/>
<path d="M48 30L48 27L51 27L51 30L48 30Z" fill="#F37B36"/>
<path d="M3 21L3 24L1.31134e-07 24L0 21L3 21Z" fill="#F37B36"/>
<path d="M24 0H27V3H24V0Z" fill="#F37B36"/>
<path d="M27 51H24V48H27V51Z" fill="#F37B36"/>
<path d="M48 27L48 24L51 24L51 27L48 27Z" fill="#F37B36"/>
<path d="M3 24L3 27L1.31134e-07 27L0 24L3 24Z" fill="#F37B36"/>
<path d="M27 0H30V3H27V0Z" fill="#F37B36"/>
<path d="M24 51H21V48H24V51Z" fill="#F37B36"/>
<path d="M48 24L48 21L51 21L51 24L48 24Z" fill="#F37B36"/>
<path d="M3 27L3 30L1.31134e-07 30L0 27L3 27Z" fill="#F37B36"/>
<path d="M30 0H33V3H30V0Z" fill="#F37B36"/>
<path d="M21 51H18V48H21V51Z" fill="#F37B36"/>
<path d="M48 21L48 18L51 18L51 21L48 21Z" fill="#F37B36"/>
<path d="M3 30L3 33L1.31134e-07 33L0 30L3 30Z" fill="#F37B36"/>
<path d="M33 0H36V3H33V0Z" fill="#F37B36"/>
<path d="M18 51H15V48H18V51Z" fill="#F37B36"/>
<path d="M48 18L48 15L51 15L51 18L48 18Z" fill="#F37B36"/>
<path d="M3 33L3 36L1.31134e-07 36L0 33L3 33Z" fill="#F37B36"/>
<path d="M36 3H39V6H36V3Z" fill="#F37B36"/>
<path d="M15 3H12V6H15V3Z" fill="#F37B36"/>
<path d="M36 48H39V45H36V48Z" fill="#F37B36"/>
<path d="M15 48H12V45H15V48Z" fill="#F37B36"/>
<path d="M39 3H42V6H39V3Z" fill="#F37B36"/>
<path d="M12 3H9V6H12V3Z" fill="#F37B36"/>
<path d="M39 48H42V45H39V48Z" fill="#F37B36"/>
<path d="M12 48H9V45H12V48Z" fill="#F37B36"/>
<path d="M45 9H48V12H45V9Z" fill="#F37B36"/>
<path d="M6 9H3V12H6V9Z" fill="#F37B36"/>
<path d="M45 42H48V39H45V42Z" fill="#F37B36"/>
<path d="M6 42H3V39H6V42Z" fill="#F37B36"/>
<path d="M45 12H48V15H45V12Z" fill="#F37B36"/>
<path d="M6 12H3V15H6V12Z" fill="#F37B36"/>
<path d="M35 20H32V23H35V20Z" fill="#F37B36"/>
<path d="M35 17H32V20H35V17Z" fill="#F37B36"/>
<path d="M23 18H20V21H23V18Z" fill="#F37B36"/>
<path d="M42 28H39V31H42V28Z" fill="#F37B36"/>
<path d="M9 28H12V31H9V28Z" fill="#F37B36"/>
<path d="M39 31H36V34H39V31Z" fill="#F37B36"/>
<path d="M12 31H15V34H12V31Z" fill="#F37B36"/>
<path d="M36 34H33V37H36V34Z" fill="#F37B36"/>
<path d="M33 34H30V37H33V34Z" fill="#F37B36"/>
<path d="M30 37H27V40H30V37Z" fill="#F37B36"/>
<path d="M27 37H24V40H27V37Z" fill="#F37B36"/>
<path d="M24 37H21V40H24V37Z" fill="#F37B36"/>
<path d="M21 34H18V37H21V34Z" fill="#F37B36"/>
<path d="M18 34H15V37H18V34Z" fill="#F37B36"/>
<path d="M20 15H17V18H20V15Z" fill="#F37B36"/>
<path d="M17 15H14V18H17V15Z" fill="#F37B36"/>
<path d="M14 18H11V21H14V18Z" fill="#F37B36"/>
<path d="M35 14H32V17H35V14Z" fill="#F37B36"/>
<path d="M35 11H32V14H35V11Z" fill="#F37B36"/>
<path d="M45 39H48V36H45V39Z" fill="#F37B36"/>
<path d="M6 39H3V36H6V39Z" fill="#F37B36"/>
<path d="M42 6H45V9H42V6Z" fill="#F37B36"/>
<path d="M9 6H6V9H9V6Z" fill="#F37B36"/>
<path d="M42 45H45V42H42V45Z" fill="#F37B36"/>
<path d="M9 45H6V42H9V45Z" fill="#F37B36"/>
<path d="M15 0H18V3H15V0Z" fill="#F37B36"/>
<path d="M36 51H33V48H36V51Z" fill="#F37B36"/>
<path d="M48 36L48 33L51 33L51 36L48 36Z" fill="#F37B36"/>
<path d="M3 15L3 18L1.31134e-07 18L0 15L3 15Z" fill="#F37B36"/>
</svg>
