<svg width="1777" height="273" viewBox="0 0 1777 273" fill="none" xmlns="http://www.w3.org/2000/svg">
<path d="M0.33949 268V0.945438H40.6324V233.314H161.641V268H0.33949ZM288.844 272.042C270.067 272.042 253.681 267.739 239.685 259.133C225.689 250.527 214.822 238.487 207.085 223.013C199.348 207.539 195.48 189.457 195.48 168.767C195.48 147.991 199.348 129.822 207.085 114.261C214.822 98.7003 225.689 86.6168 239.685 78.0105C253.681 69.4043 270.067 65.1011 288.844 65.1011C307.622 65.1011 324.008 69.4043 338.004 78.0105C352 86.6168 362.867 98.7003 370.604 114.261C378.341 129.822 382.209 147.991 382.209 168.767C382.209 189.457 378.341 207.539 370.604 223.013C362.867 238.487 352 250.527 338.004 259.133C324.008 267.739 307.622 272.042 288.844 272.042ZM288.975 239.312C301.145 239.312 311.229 236.096 319.227 229.663C327.225 223.23 333.136 214.667 336.961 203.975C340.873 193.282 342.829 181.503 342.829 168.637C342.829 155.858 340.873 144.122 336.961 133.43C333.136 122.65 327.225 114 319.227 107.48C311.229 100.96 301.145 97.7006 288.975 97.7006C276.717 97.7006 266.546 100.96 258.462 107.48C250.464 114 244.509 122.65 240.597 133.43C236.772 144.122 234.86 155.858 234.86 168.637C234.86 181.503 236.772 193.282 240.597 203.975C244.509 214.667 250.464 223.23 258.462 229.663C266.546 236.096 276.717 239.312 288.975 239.312ZM510.097 272.042C491.32 272.042 474.933 267.739 460.937 259.133C446.941 250.527 436.074 238.487 428.337 223.013C420.6 207.539 416.732 189.457 416.732 168.767C416.732 147.991 420.6 129.822 428.337 114.261C436.074 98.7003 446.941 86.6168 460.937 78.0105C474.933 69.4043 491.32 65.1011 510.097 65.1011C528.874 65.1011 545.261 69.4043 559.257 78.0105C573.253 86.6168 584.119 98.7003 591.856 114.261C599.593 129.822 603.462 147.991 603.462 168.767C603.462 189.457 599.593 207.539 591.856 223.013C584.119 238.487 573.253 250.527 559.257 259.133C545.261 267.739 528.874 272.042 510.097 272.042ZM510.227 239.312C522.398 239.312 532.482 236.096 540.479 229.663C548.477 223.23 554.389 214.667 558.214 203.975C562.126 193.282 564.081 181.503 564.081 168.637C564.081 155.858 562.126 144.122 558.214 133.43C554.389 122.65 548.477 114 540.479 107.48C532.482 100.96 522.398 97.7006 510.227 97.7006C497.97 97.7006 487.799 100.96 479.714 107.48C471.716 114 465.762 122.65 461.85 133.43C458.025 144.122 456.112 155.858 456.112 168.637C456.112 181.503 458.025 193.282 461.85 203.975C465.762 214.667 471.716 223.23 479.714 229.663C487.799 236.096 497.97 239.312 510.227 239.312ZM682.841 200.063L682.58 152.468H689.361L769.165 67.7091H815.847L724.829 164.203H718.701L682.841 200.063ZM646.982 268V0.945438H685.971V268H646.982ZM773.468 268L701.749 172.81L728.611 145.557L821.324 268H773.468ZM851.38 268V67.7091H888.804V100.309H891.282C895.455 89.2682 902.279 80.6619 911.754 74.4898C921.23 68.2307 932.575 65.1011 945.788 65.1011C959.176 65.1011 970.39 68.2307 979.431 74.4898C988.559 80.7488 995.296 89.3551 999.643 100.309H1001.73C1006.51 89.6159 1014.12 81.0966 1024.55 74.7506C1034.98 68.3176 1047.41 65.1011 1061.84 65.1011C1080.01 65.1011 1094.83 70.7952 1106.31 82.1832C1117.87 93.5713 1123.65 110.74 1123.65 133.69V268H1084.66V137.341C1084.66 123.78 1080.97 113.957 1073.58 107.872C1066.19 101.786 1057.37 98.7437 1047.11 98.7437C1034.42 98.7437 1024.55 102.656 1017.51 110.48C1010.47 118.216 1006.94 128.17 1006.94 140.341V268H968.086V134.864C968.086 123.997 964.696 115.261 957.915 108.654C951.135 102.047 942.311 98.7437 931.445 98.7437C924.055 98.7437 917.231 100.7 910.972 104.612C904.8 108.437 899.801 113.783 895.976 120.651C892.238 127.518 890.369 135.472 890.369 144.513V268H851.38ZM1262.23 272.042C1242.5 272.042 1225.5 267.826 1211.25 259.394C1197.08 250.874 1186.12 238.921 1178.39 223.534C1170.74 208.061 1166.91 189.935 1166.91 169.159C1166.91 148.643 1170.74 130.561 1178.39 114.913C1186.12 99.2653 1196.9 87.0514 1210.72 78.2713C1224.63 69.4912 1240.89 65.1011 1259.49 65.1011C1270.79 65.1011 1281.75 66.9702 1292.35 70.7082C1302.96 74.4463 1312.48 80.3142 1320.91 88.3119C1329.34 96.3096 1335.99 106.698 1340.86 119.477C1345.73 132.169 1348.16 147.599 1348.16 165.768V179.59H1188.95V150.381H1309.96C1309.96 140.123 1307.87 131.039 1303.7 123.128C1299.52 115.13 1293.66 108.828 1286.09 104.22C1278.62 99.6131 1269.84 97.3094 1259.75 97.3094C1248.8 97.3094 1239.24 100.004 1231.07 105.394C1222.98 110.697 1216.72 117.651 1212.29 126.258C1207.94 134.777 1205.77 144.035 1205.77 154.032V176.852C1205.77 190.239 1208.12 201.628 1212.81 211.016C1217.59 220.405 1224.24 227.577 1232.76 232.532C1241.28 237.4 1251.23 239.834 1262.62 239.834C1270.01 239.834 1276.75 238.791 1282.83 236.705C1288.92 234.531 1294.18 231.315 1298.61 227.055C1303.05 222.795 1306.44 217.536 1308.78 211.277L1345.69 217.927C1342.73 228.794 1337.43 238.313 1329.78 246.484C1322.21 254.569 1312.69 260.872 1301.22 265.392C1289.83 269.826 1276.84 272.042 1262.23 272.042ZM1430.41 149.077V268H1391.42V67.7091H1428.85V100.309H1431.32C1435.93 89.7028 1443.15 81.1835 1452.97 74.7506C1462.88 68.3176 1475.36 65.1011 1490.39 65.1011C1504.04 65.1011 1516 67.9699 1526.25 73.7074C1536.51 79.3579 1544.47 87.7903 1550.12 99.0045C1555.77 110.219 1558.59 124.084 1558.59 140.601V268H1519.6V145.296C1519.6 130.778 1515.82 119.434 1508.26 111.262C1500.7 103.003 1490.31 98.8741 1477.09 98.8741C1468.05 98.8741 1460.01 100.83 1452.97 104.742C1446.02 108.654 1440.5 114.391 1436.41 121.955C1432.41 129.431 1430.41 138.472 1430.41 149.077ZM1737.76 184.937V67.7091H1776.88V268H1738.54V233.314H1736.45C1731.85 244.007 1724.46 252.917 1714.29 260.046C1704.2 267.087 1691.64 270.608 1676.6 270.608C1663.74 270.608 1652.35 267.783 1642.44 262.132C1632.61 256.395 1624.88 247.919 1619.23 236.705C1613.66 225.49 1610.88 211.625 1610.88 195.108V67.7091H1649.87V190.413C1649.87 204.062 1653.65 214.928 1661.22 223.013C1668.78 231.097 1678.6 235.14 1690.69 235.14C1697.99 235.14 1705.25 233.314 1712.46 229.663C1719.76 226.012 1725.81 220.492 1730.59 213.103C1735.46 205.713 1737.85 196.325 1737.76 184.937Z" fill="#0033AD"/>
</svg>
