<svg width="48" height="48" viewBox="0 0 48 48" fill="none" xmlns="http://www.w3.org/2000/svg">
<g clip-path="url(#clip0_2219_312)">
<path fill-rule="evenodd" clip-rule="evenodd" d="M39.8993 13.9253C39.9668 13.5578 39.8843 13.1783 39.672 12.8708C39.459 12.5633 39.1328 12.3533 38.7653 12.2865C34.4633 11.5035 21.3743 9.12078 17.0723 8.33703C16.7048 8.27028 16.3253 8.35203 16.0178 8.56503C15.7103 8.77803 15.5003 9.10353 15.4335 9.47178C14.4975 14.6123 11.232 32.5485 10.2968 37.689C10.2293 38.0565 10.3118 38.436 10.524 38.7435C10.737 39.051 11.0633 39.261 11.4308 39.3278C15.7328 40.1115 28.8218 42.4943 33.1238 43.2773C33.4913 43.344 33.8708 43.2623 34.1783 43.0493C34.4858 42.837 34.6958 42.5108 34.7625 42.1425C35.6985 37.002 38.964 19.0658 39.8993 13.9253Z" stroke="#0033AD" stroke-miterlimit="2" stroke-linecap="round" stroke-linejoin="round"/>
<path fill-rule="evenodd" clip-rule="evenodd" d="M30.4162 17.673C30.7897 15.621 29.4292 13.6552 27.378 13.2817C25.3267 12.909 23.361 14.2687 22.9875 16.32C22.9125 16.7332 22.8622 17.0085 22.8622 17.0085L30.291 18.3607C30.291 18.3607 30.3412 18.0855 30.4162 17.673Z" stroke="#0033AD" stroke-miterlimit="2" stroke-linecap="round" stroke-linejoin="round"/>
<path d="M21.8287 22.6844L29.2582 24.0367" stroke="#0033AD" stroke-miterlimit="2" stroke-linecap="round" stroke-linejoin="round"/>
<path d="M22.2728 20.244C22.2728 20.244 22.6343 19.9942 22.995 19.7452C23.1863 19.6125 23.4218 19.5615 23.6505 19.6035C23.8785 19.6447 24.0818 19.776 24.2138 19.9665L24.2145 19.968C24.4898 20.3662 25.0358 20.4652 25.4333 20.19C25.4445 20.1825 25.4558 20.1742 25.467 20.1667C25.8825 19.8795 26.4525 19.983 26.7405 20.3985C26.748 20.4097 26.7555 20.421 26.7638 20.4322C27.039 20.8297 27.5843 20.9295 27.9825 20.6542L27.984 20.6527C28.1745 20.5207 28.4108 20.4697 28.6395 20.5117C28.8675 20.553 29.0708 20.6842 29.2028 20.8747C29.4525 21.2355 29.7023 21.597 29.7023 21.597" stroke="#0033AD" stroke-miterlimit="2" stroke-linecap="round" stroke-linejoin="round"/>
<path fill-rule="evenodd" clip-rule="evenodd" d="M29.322 35.0017L17.9048 32.9235L17.1623 37.0012L28.5803 39.0795L29.322 35.0017Z" stroke="#0033AD" stroke-miterlimit="2" stroke-linecap="round" stroke-linejoin="round"/>
<path fill-rule="evenodd" clip-rule="evenodd" d="M39.8993 13.9253C39.9668 13.5578 39.8843 13.1783 39.672 12.8708C39.459 12.5633 39.1328 12.3533 38.7653 12.2865C34.4633 11.5035 21.3743 9.12078 17.0723 8.33703C16.7048 8.27028 16.3253 8.35203 16.0178 8.56503C15.7103 8.77803 15.5003 9.10353 15.4335 9.47178C14.4975 14.6123 11.232 32.5485 10.2968 37.689C10.2293 38.0565 10.3118 38.436 10.524 38.7435C10.737 39.051 11.0633 39.261 11.4308 39.3278C15.7328 40.1115 28.8218 42.4943 33.1238 43.2773C33.4913 43.344 33.8708 43.2623 34.1783 43.0493C34.4858 42.837 34.6958 42.5108 34.7625 42.1425C35.6985 37.002 38.964 19.0658 39.8993 13.9253Z" stroke="#0033AD" stroke-miterlimit="2" stroke-linecap="round" stroke-linejoin="round"/>
<path d="M10.7265 35.3258L7.85626 8.36405C7.81651 7.99205 7.92601 7.62005 8.16076 7.32905C8.39551 7.03805 8.73676 6.8528 9.10801 6.81305C13.4565 6.3503 26.6858 4.9418 31.0335 4.4783C31.4055 4.43855 31.7775 4.5488 32.0685 4.78355C32.3595 5.0183 32.5448 5.3588 32.5845 5.7308C32.6873 6.6968 32.8058 7.80755 32.8058 7.80755" stroke="#0033AD" stroke-miterlimit="2" stroke-linecap="round" stroke-linejoin="round"/>
<path fill-rule="evenodd" clip-rule="evenodd" d="M30.4162 17.673C30.7897 15.621 29.4292 13.6552 27.378 13.2817C25.3267 12.909 23.361 14.2687 22.9875 16.32C22.9125 16.7332 22.8622 17.0085 22.8622 17.0085L30.291 18.3607C30.291 18.3607 30.3412 18.0855 30.4162 17.673Z" stroke="#0033AD" stroke-miterlimit="2" stroke-linecap="round" stroke-linejoin="round"/>
<path d="M21.8287 22.6844L29.2582 24.0367" stroke="#0033AD" stroke-miterlimit="2" stroke-linecap="round" stroke-linejoin="round"/>
<path d="M22.2728 20.244C22.2728 20.244 22.6343 19.9942 22.995 19.7452C23.1863 19.6125 23.4218 19.5615 23.6505 19.6035C23.8785 19.6447 24.0818 19.776 24.2138 19.9665L24.2145 19.968C24.4898 20.3662 25.0358 20.4652 25.4333 20.19C25.4445 20.1825 25.4558 20.1742 25.467 20.1667C25.8825 19.8795 26.4525 19.983 26.7405 20.3985C26.748 20.4097 26.7555 20.421 26.7638 20.4322C27.039 20.8297 27.5843 20.9295 27.9825 20.6542L27.984 20.6527C28.1745 20.5207 28.4108 20.4697 28.6395 20.5117C28.8675 20.553 29.0708 20.6842 29.2028 20.8747C29.4525 21.2355 29.7023 21.597 29.7023 21.597" stroke="#0033AD" stroke-miterlimit="2" stroke-linecap="round" stroke-linejoin="round"/>
<path fill-rule="evenodd" clip-rule="evenodd" d="M29.322 35.0017L17.9048 32.9235L17.1623 37.0012L28.5803 39.0795L29.322 35.0017Z" stroke="#0033AD" stroke-miterlimit="2" stroke-linecap="round" stroke-linejoin="round"/>
</g>
<defs>
<clipPath id="clip0_2219_312">
<rect width="48" height="48" fill="white"/>
</clipPath>
</defs>
</svg>
