<svg width="64" height="65" viewBox="0 0 64 65" fill="none" xmlns="http://www.w3.org/2000/svg">
<path fill-rule="evenodd" clip-rule="evenodd" d="M38 7.5H35H32H29H26H23H20H17H14V10.5V13.5H17V10.5H20H23H26H29H32H35V13.5H38V10.5V7.5ZM41 19.5V16.5V13.5H38V16.5V19.5H41ZM44 25.5V22.5V19.5H41V22.5V25.5H44ZM38 34.5V31.5H41H44H47V28.5V25.5H44V28.5H41H38H35V31.5V34.5H38ZM41 40.5V37.5V34.5H38V37.5V40.5H41ZM44 46.5V43.5V40.5H41V43.5V46.5H44ZM44 52.5V49.5V46.5H47V49.5V52.5H50V55.5V58.5H47H44V55.5H41V52.5H38V49.5H35V46.5H32V43.5H29V40.5H26V37.5H23V34.5H20V31.5H17V28.5V25.5H20H23H26V22.5H23V19.5H20V16.5H17V13.5H20V16.5H23V19.5H26V22.5H29V25.5H32V28.5H29H26H23H20V31.5H23V34.5H26V37.5H29V40.5H32V43.5H35V46.5H38V49.5H41V52.5H44ZM44 52.5H47V55.5H44V52.5Z" fill="#0033AD"/>
</svg>
