<svg width="64" height="64" viewBox="0 0 64 64" fill="none" xmlns="http://www.w3.org/2000/svg">
<path d="M58 54L58 9L61 9L61 54L58 54Z" fill="#F37B36"/>
<path d="M4 54.5L4 9.5L7 9.5L7 54.5L4 54.5Z" fill="#F37B36"/>
<path d="M10 3L55 3V6L10 6V3Z" fill="#F37B36"/>
<path d="M10 57L55 57V60L10 60V57Z" fill="#F37B36"/>
<path d="M55 57L55 54L58 54L58 57L55 57Z" fill="#F37B36"/>
<path d="M6.99997 57L6.99997 54L9.99997 54L9.99997 57L6.99997 57Z" fill="#F37B36"/>
<path d="M55 9L55 6L58 6L58 9L55 9Z" fill="#F37B36"/>
<path d="M6.99997 9L6.99997 6L9.99997 6L9.99997 9L6.99997 9Z" fill="#F37B36"/>
<path d="M25 10.5L37 10.5V13.5L25 13.5V10.5Z" fill="#F37B36"/>
<path d="M19 13.5L25 13.5V16.5H19V13.5Z" fill="#F37B36"/>
<path d="M16 16.5H19V22.5H16L16 16.5Z" fill="#F37B36"/>
<path d="M19 16.5H22V22.5H19V16.5Z" fill="#F37B36"/>
<path d="M37 31.5H43V34.5H37V31.5Z" fill="#F37B36"/>
<path d="M34 31.5H37V34.5H34V31.5Z" fill="#F37B36"/>
<path d="M31 34.5H34V37.5H31V34.5Z" fill="#F37B36"/>
<path d="M34 34.5H37V37.5H34V34.5Z" fill="#F37B36"/>
<path d="M28 46.5H31V49.5H28V46.5Z" fill="#F37B36"/>
<path d="M28 49.5H31V52.5H28V49.5Z" fill="#F37B36"/>
<path d="M31 46.5H34V49.5H31V46.5Z" fill="#F37B36"/>
<path d="M31 49.5H34V52.5H31V49.5Z" fill="#F37B36"/>
<path d="M28 37.5H31V40.5H28V37.5Z" fill="#F37B36"/>
<path d="M31 37.5H34V40.5H31V37.5Z" fill="#F37B36"/>
<path d="M43 16.5H46V22.5H43V16.5Z" fill="#F37B36"/>
<path d="M43 28.5H46V31.5H43V28.5Z" fill="#F37B36"/>
<path d="M40 28.5H43V31.5H40V28.5Z" fill="#F37B36"/>
<path d="M40 16.5H43V22.5H40V16.5Z" fill="#F37B36"/>
<path d="M46 22.5H49V28.5H46V22.5Z" fill="#F37B36"/>
<path d="M43 22.5H46V28.5H43V22.5Z" fill="#F37B36"/>
<path d="M37 13.5L43 13.5V16.5H37V13.5Z" fill="#F37B36"/>
</svg>
